<svg xmlns="http://www.w3.org/2000/svg" width="1000" height="200" viewBox="0 0 1000 200"><rect x="0" y="0" width="1000" height="200" fill="#ffffff"/><defs><marker id="arrow-init" viewBox="0 0 7 7" refX="6" refY="3.5" markerWidth="7" markerHeight="7" markerUnits="userSpaceOnUse" orient="auto"><path d="M0,0.7 L6.3,3.5 L0,6.3 L1.5,3.5 z" fill="#D93025"/></marker><marker id="arrow-med" viewBox="0 0 7 7" refX="6" refY="3.5" markerWidth="7" markerHeight="7" markerUnits="userSpaceOnUse" orient="auto"><path d="M0,0.7 L6.3,3.5 L0,6.3 L1.5,3.5 z" fill="#1A73E8"/></marker><marker id="arrow-fin" viewBox="0 0 7 7" refX="6" refY="3.5" markerWidth="7" markerHeight="7" markerUnits="userSpaceOnUse" orient="auto"><path d="M0,0.7 L6.3,3.5 L0,6.3 L1.5,3.5 z" fill="#1E8E3E"/></marker></defs><rect x="40" y="10" width="180" height="180" fill="#ffffff" stroke="#d8d8d8" stroke-width="1"/><line x1="130.0" y1="10" x2="130.0" y2="190" stroke="#d0d0d0" stroke-width="1" stroke-dasharray="4,4"/><line x1="40" y1="100.0" x2="220" y2="100.0" stroke="#d0d0d0" stroke-width="1" stroke-dasharray="4,4"/><path d="M 54.40 29.59 L 112.31 29.59 L 112.31 71.84" fill="none" stroke="#D93025" stroke-width="3.2" stroke-linecap="round" stroke-linejoin="round" opacity="1.0" marker-end="url(#arrow-init)"/><text x="54.40" y="20.00" font-family="Arial, sans-serif" font-size="20" font-weight="700" text-anchor="middle" dominant-baseline="middle" paint-order="stroke fill" stroke="#FFFFFF" stroke-width="5" fill="#D93025">1</text><path d="M 54.40 91.20 L 112.31 91.20" fill="none" stroke="#D93025" stroke-width="3.2" stroke-linecap="round" stroke-linejoin="round" opacity="1.0" marker-end="url(#arrow-init)"/><text x="54.40" y="73.20" font-family="Arial, sans-serif" font-size="20" font-weight="700" text-anchor="middle" dominant-baseline="middle" paint-order="stroke fill" stroke="#FFFFFF" stroke-width="5" fill="#D93025">2</text><path d="M 54.40 110.56 L 54.40 170.41 L 112.31 170.41" fill="none" stroke="#D93025" stroke-width="3.2" stroke-linecap="round" stroke-linejoin="round" opacity="1.0" marker-end="url(#arrow-init)"/><text x="50.00" y="110.56" font-family="Arial, sans-serif" font-size="20" font-weight="700" text-anchor="middle" dominant-baseline="middle" paint-order="stroke fill" stroke="#FFFFFF" stroke-width="5" fill="#D93025">3</text><path d="M 149.34 36.63 L 149.34 159.85" fill="none" stroke="#D93025" stroke-width="3.2" stroke-linecap="round" stroke-linejoin="round" opacity="1.0" marker-end="url(#arrow-init)"/><text x="167.34" y="36.63" font-family="Arial, sans-serif" font-size="20" font-weight="700" text-anchor="middle" dominant-baseline="middle" paint-order="stroke fill" stroke="#FFFFFF" stroke-width="5" fill="#D93025">4</text><path d="M 149.34 36.63 L 205.60 36.63 L 205.60 159.85" fill="none" stroke="#D93025" stroke-width="3.2" stroke-linecap="round" stroke-linejoin="round" opacity="1.0" marker-end="url(#arrow-init)"/><text x="143.17" y="20.00" font-family="Arial, sans-serif" font-size="20" font-weight="700" text-anchor="middle" dominant-baseline="middle" paint-order="stroke fill" stroke="#FFFFFF" stroke-width="5" fill="#D93025">5</text><path d="M 149.34 159.85 L 205.60 159.85" fill="none" stroke="#D93025" stroke-width="3.2" stroke-linecap="round" stroke-linejoin="round" opacity="1.0" marker-end="url(#arrow-init)"/><text x="149.34" y="177.85" font-family="Arial, sans-serif" font-size="20" font-weight="700" text-anchor="middle" dominant-baseline="middle" paint-order="stroke fill" stroke="#FFFFFF" stroke-width="5" fill="#D93025">6</text><rect x="280" y="10" width="180" height="180" fill="#ffffff" stroke="#d8d8d8" stroke-width="1"/><rect x="280.00" y="10.00" width="180.00" height="180.00" fill="#FADBD8" stroke="#ffffff" stroke-width="1.5"/><text x="370.00" y="100.00" font-family="Arial, sans-serif" font-size="15" text-anchor="middle" dominant-baseline="middle" fill="#5f6368">initial</text><rect x="520" y="10" width="180" height="180" fill="#ffffff" stroke="#d8d8d8" stroke-width="1"/><line x1="610.0" y1="10" x2="610.0" y2="190" stroke="#d0d0d0" stroke-width="1" stroke-dasharray="4,4"/><line x1="520" y1="100.0" x2="700" y2="100.0" stroke="#d0d0d0" stroke-width="1" stroke-dasharray="4,4"/><path d="M 534.40 29.59 L 592.31 29.59 L 592.31 71.84" fill="none" stroke="#CCCCCC" stroke-width="3.2" stroke-linecap="round" stroke-linejoin="round" opacity="0.35"/><path d="M 534.40 91.20 L 592.31 91.20" fill="none" stroke="#CCCCCC" stroke-width="3.2" stroke-linecap="round" stroke-linejoin="round" opacity="0.35"/><path d="M 534.40 110.56 L 534.40 170.41 L 592.31 170.41" fill="none" stroke="#CCCCCC" stroke-width="3.2" stroke-linecap="round" stroke-linejoin="round" opacity="0.35"/><path d="M 629.34 36.63 L 629.34 159.85" fill="none" stroke="#CCCCCC" stroke-width="3.2" stroke-linecap="round" stroke-linejoin="round" opacity="0.35"/><path d="M 629.34 36.63 L 685.60 36.63 L 685.60 159.85" fill="none" stroke="#CCCCCC" stroke-width="3.2" stroke-linecap="round" stroke-linejoin="round" opacity="0.35"/><path d="M 629.34 159.85 L 685.60 159.85" fill="none" stroke="#CCCCCC" stroke-width="3.2" stroke-linecap="round" stroke-linejoin="round" opacity="0.35"/><rect x="760" y="10" width="180" height="180" fill="#ffffff" stroke="#d8d8d8" stroke-width="1"/><line x1="850.0" y1="10" x2="850.0" y2="190" stroke="#d0d0d0" stroke-width="1" stroke-dasharray="4,4"/><line x1="760" y1="100.0" x2="940" y2="100.0" stroke="#d0d0d0" stroke-width="1" stroke-dasharray="4,4"/></svg>