<svg xmlns="http://www.w3.org/2000/svg" width="1000" height="200" viewBox="0 0 1000 200"><rect x="0" y="0" width="1000" height="200" fill="#ffffff"/><defs><marker id="arrow-init" viewBox="0 0 7 7" refX="6" refY="3.5" markerWidth="7" markerHeight="7" markerUnits="userSpaceOnUse" orient="auto"><path d="M0,0.7 L6.3,3.5 L0,6.3 L1.5,3.5 z" fill="#D93025"/></marker><marker id="arrow-med" viewBox="0 0 7 7" refX="6" refY="3.5" markerWidth="7" markerHeight="7" markerUnits="userSpaceOnUse" orient="auto"><path d="M0,0.7 L6.3,3.5 L0,6.3 L1.5,3.5 z" fill="#1A73E8"/></marker><marker id="arrow-fin" viewBox="0 0 7 7" refX="6" refY="3.5" markerWidth="7" markerHeight="7" markerUnits="userSpaceOnUse" orient="auto"><path d="M0,0.7 L6.3,3.5 L0,6.3 L1.5,3.5 z" fill="#1E8E3E"/></marker></defs><rect x="40" y="10" width="180" height="180" fill="#ffffff" stroke="#d8d8d8" stroke-width="1"/><line x1="130.0" y1="10" x2="130.0" y2="190" stroke="#d0d0d0" stroke-width="1" stroke-dasharray="4,4"/><line x1="40" y1="100.0" x2="220" y2="100.0" stroke="#d0d0d0" stroke-width="1" stroke-dasharray="4,4"/><path d="M 85.05 24.40 L 85.05 175.60" fill="none" stroke="#D93025" stroke-width="3.2" stroke-linecap="round" stroke-linejoin="round" opacity="1.0" marker-end="url(#arrow-init)"/><text x="67.05" y="24.40" font-family="Arial, sans-serif" font-size="20" font-weight="700" text-anchor="middle" dominant-baseline="middle" paint-order="stroke fill" stroke="#FFFFFF" stroke-width="5" fill="#D93025">1</text><path d="M 174.95 24.40 L 174.95 175.60" fill="none" stroke="#D93025" stroke-width="3.2" stroke-linecap="round" stroke-linejoin="round" opacity="1.0" marker-end="url(#arrow-init)"/><text x="192.95" y="24.40" font-family="Arial, sans-serif" font-size="20" font-weight="700" text-anchor="middle" dominant-baseline="middle" paint-order="stroke fill" stroke="#FFFFFF" stroke-width="5" fill="#D93025">2</text><path d="M 85.05 73.44 L 174.95 73.44" fill="none" stroke="#D93025" stroke-width="3.2" stroke-linecap="round" stroke-linejoin="round" opacity="1.0" marker-end="url(#arrow-init)"/><text x="85.05" y="55.44" font-family="Arial, sans-serif" font-size="20" font-weight="700" text-anchor="middle" dominant-baseline="middle" paint-order="stroke fill" stroke="#FFFFFF" stroke-width="5" fill="#D93025">3</text><path d="M 85.05 171.51 L 174.95 171.51" fill="none" stroke="#D93025" stroke-width="3.2" stroke-linecap="round" stroke-linejoin="round" opacity="1.0" marker-end="url(#arrow-init)"/><text x="85.05" y="180.00" font-family="Arial, sans-serif" font-size="20" font-weight="700" text-anchor="middle" dominant-baseline="middle" paint-order="stroke fill" stroke="#FFFFFF" stroke-width="5" fill="#D93025">4</text><rect x="280" y="10" width="180" height="180" fill="#ffffff" stroke="#d8d8d8" stroke-width="1"/><rect x="280.00" y="10.00" width="180.00" height="180.00" fill="#FADBD8" stroke="#ffffff" stroke-width="1.5"/><text x="370.00" y="100.00" font-family="Arial, sans-serif" font-size="15" text-anchor="middle" dominant-baseline="middle" fill="#5f6368">initial</text><rect x="520" y="10" width="180" height="180" fill="#ffffff" stroke="#d8d8d8" stroke-width="1"/><line x1="610.0" y1="10" x2="610.0" y2="190" stroke="#d0d0d0" stroke-width="1" stroke-dasharray="4,4"/><line x1="520" y1="100.0" x2="700" y2="100.0" stroke="#d0d0d0" stroke-width="1" stroke-dasharray="4,4"/><path d="M 565.05 24.40 L 565.05 175.60" fill="none" stroke="#CCCCCC" stroke-width="3.2" stroke-linecap="round" stroke-linejoin="round" opacity="0.35"/><path d="M 654.95 24.40 L 654.95 175.60" fill="none" stroke="#CCCCCC" stroke-width="3.2" stroke-linecap="round" stroke-linejoin="round" opacity="0.35"/><path d="M 565.05 73.44 L 654.95 73.44" fill="none" stroke="#CCCCCC" stroke-width="3.2" stroke-linecap="round" stroke-linejoin="round" opacity="0.35"/><path d="M 565.05 171.51 L 654.95 171.51" fill="none" stroke="#CCCCCC" stroke-width="3.2" stroke-linecap="round" stroke-linejoin="round" opacity="0.35"/><rect x="760" y="10" width="180" height="180" fill="#ffffff" stroke="#d8d8d8" stroke-width="1"/><line x1="850.0" y1="10" x2="850.0" y2="190" stroke="#d0d0d0" stroke-width="1" stroke-dasharray="4,4"/><line x1="760" y1="100.0" x2="940" y2="100.0" stroke="#d0d0d0" stroke-width="1" stroke-dasharray="4,4"/></svg>