<svg xmlns="http://www.w3.org/2000/svg" width="1000" height="200" viewBox="0 0 1000 200"><rect x="0" y="0" width="1000" height="200" fill="#ffffff"/><defs><marker id="arrow-init" viewBox="0 0 7 7" refX="6" refY="3.5" markerWidth="7" markerHeight="7" markerUnits="userSpaceOnUse" orient="auto"><path d="M0,0.7 L6.3,3.5 L0,6.3 L1.5,3.5 z" fill="#D93025"/></marker><marker id="arrow-med" viewBox="0 0 7 7" refX="6" refY="3.5" markerWidth="7" markerHeight="7" markerUnits="userSpaceOnUse" orient="auto"><path d="M0,0.7 L6.3,3.5 L0,6.3 L1.5,3.5 z" fill="#1A73E8"/></marker><marker id="arrow-fin" viewBox="0 0 7 7" refX="6" refY="3.5" markerWidth="7" markerHeight="7" markerUnits="userSpaceOnUse" orient="auto"><path d="M0,0.7 L6.3,3.5 L0,6.3 L1.5,3.5 z" fill="#1E8E3E"/></marker></defs><rect x="40" y="10" width="180" height="180" fill="#ffffff" stroke="#d8d8d8" stroke-width="1"/><line x1="130.0" y1="10" x2="130.0" y2="190" stroke="#d0d0d0" stroke-width="1" stroke-dasharray="4,4"/><line x1="40" y1="100.0" x2="220" y2="100.0" stroke="#d0d0d0" stroke-width="1" stroke-dasharray="4,4"/><path d="M 116.56 24.40 L 143.44 37.84" fill="none" stroke="#D93025" stroke-width="3.2" stroke-linecap="round" stroke-linejoin="round" opacity="1.0" marker-end="url(#arrow-init)"/><text x="124.61" y="20.00" font-family="Arial, sans-serif" font-size="20" font-weight="700" text-anchor="middle" dominant-baseline="middle" paint-order="stroke fill" stroke="#FFFFFF" stroke-width="5" fill="#D93025">1</text><path d="M 82.96 61.36 L 177.04 61.36" fill="none" stroke="#D93025" stroke-width="3.2" stroke-linecap="round" stroke-linejoin="round" opacity="1.0" marker-end="url(#arrow-init)"/><text x="82.96" y="43.36" font-family="Arial, sans-serif" font-size="20" font-weight="700" text-anchor="middle" dominant-baseline="middle" paint-order="stroke fill" stroke="#FFFFFF" stroke-width="5" fill="#D93025">2</text><path d="M 130.00 61.36 C 121.60 98.32 99.76 131.92 69.52 175.60" fill="none" stroke="#D93025" stroke-width="3.2" stroke-linecap="round" stroke-linejoin="round" opacity="1.0" marker-end="url(#arrow-init)"/><text x="112.45" y="57.37" font-family="Arial, sans-serif" font-size="20" font-weight="700" text-anchor="middle" dominant-baseline="middle" paint-order="stroke fill" stroke="#FFFFFF" stroke-width="5" fill="#D93025">3</text><path d="M 130.00 61.36 C 138.40 98.32 160.24 131.92 190.48 175.60" fill="none" stroke="#D93025" stroke-width="3.2" stroke-linecap="round" stroke-linejoin="round" opacity="1.0" marker-end="url(#arrow-init)"/><text x="147.55" y="57.37" font-family="Arial, sans-serif" font-size="20" font-weight="700" text-anchor="middle" dominant-baseline="middle" paint-order="stroke fill" stroke="#FFFFFF" stroke-width="5" fill="#D93025">4</text><rect x="280" y="10" width="180" height="180" fill="#ffffff" stroke="#d8d8d8" stroke-width="1"/><rect x="280.00" y="10.00" width="180.00" height="180.00" fill="#FADBD8" stroke="#ffffff" stroke-width="1.5"/><text x="370.00" y="100.00" font-family="Arial, sans-serif" font-size="15" text-anchor="middle" dominant-baseline="middle" fill="#5f6368">initial</text><rect x="520" y="10" width="180" height="180" fill="#ffffff" stroke="#d8d8d8" stroke-width="1"/><line x1="610.0" y1="10" x2="610.0" y2="190" stroke="#d0d0d0" stroke-width="1" stroke-dasharray="4,4"/><line x1="520" y1="100.0" x2="700" y2="100.0" stroke="#d0d0d0" stroke-width="1" stroke-dasharray="4,4"/><path d="M 596.56 24.40 L 623.44 37.84" fill="none" stroke="#CCCCCC" stroke-width="3.2" stroke-linecap="round" stroke-linejoin="round" opacity="0.35"/><path d="M 562.96 61.36 L 657.04 61.36" fill="none" stroke="#CCCCCC" stroke-width="3.2" stroke-linecap="round" stroke-linejoin="round" opacity="0.35"/><path d="M 610.00 61.36 C 601.60 98.32 579.76 131.92 549.52 175.60" fill="none" stroke="#CCCCCC" stroke-width="3.2" stroke-linecap="round" stroke-linejoin="round" opacity="0.35"/><path d="M 610.00 61.36 C 618.40 98.32 640.24 131.92 670.48 175.60" fill="none" stroke="#CCCCCC" stroke-width="3.2" stroke-linecap="round" stroke-linejoin="round" opacity="0.35"/><rect x="760" y="10" width="180" height="180" fill="#ffffff" stroke="#d8d8d8" stroke-width="1"/><line x1="850.0" y1="10" x2="850.0" y2="190" stroke="#d0d0d0" stroke-width="1" stroke-dasharray="4,4"/><line x1="760" y1="100.0" x2="940" y2="100.0" stroke="#d0d0d0" stroke-width="1" stroke-dasharray="4,4"/></svg>