<svg xmlns="http://www.w3.org/2000/svg" width="1000" height="200" viewBox="0 0 1000 200"><rect x="0" y="0" width="1000" height="200" fill="#ffffff"/><defs><marker id="arrow-init" viewBox="0 0 7 7" refX="6" refY="3.5" markerWidth="7" markerHeight="7" markerUnits="userSpaceOnUse" orient="auto"><path d="M0,0.7 L6.3,3.5 L0,6.3 L1.5,3.5 z" fill="#D93025"/></marker><marker id="arrow-med" viewBox="0 0 7 7" refX="6" refY="3.5" markerWidth="7" markerHeight="7" markerUnits="userSpaceOnUse" orient="auto"><path d="M0,0.7 L6.3,3.5 L0,6.3 L1.5,3.5 z" fill="#1A73E8"/></marker><marker id="arrow-fin" viewBox="0 0 7 7" refX="6" refY="3.5" markerWidth="7" markerHeight="7" markerUnits="userSpaceOnUse" orient="auto"><path d="M0,0.7 L6.3,3.5 L0,6.3 L1.5,3.5 z" fill="#1E8E3E"/></marker></defs><rect x="40" y="10" width="180" height="180" fill="#ffffff" stroke="#d8d8d8" stroke-width="1"/><line x1="130.0" y1="10" x2="130.0" y2="190" stroke="#d0d0d0" stroke-width="1" stroke-dasharray="4,4"/><line x1="40" y1="100.0" x2="220" y2="100.0" stroke="#d0d0d0" stroke-width="1" stroke-dasharray="4,4"/><path d="M 49.93 17.02 L 49.93 119.98 L 120.07 119.98" fill="none" stroke="#D93025" stroke-width="3.2" stroke-linecap="round" stroke-linejoin="round" opacity="1.0" marker-end="url(#arrow-init)"/><text x="50.00" y="20.00" font-family="Arial, sans-serif" font-size="20" font-weight="700" text-anchor="middle" dominant-baseline="middle" paint-order="stroke fill" stroke="#FFFFFF" stroke-width="5" fill="#D93025">1</text><path d="M 152.05 17.02 L 152.05 119.98" fill="none" stroke="#1A73E8" stroke-width="3.2" stroke-linecap="round" stroke-linejoin="round" opacity="1.0" marker-end="url(#arrow-med)"/><text x="170.05" y="20.00" font-family="Arial, sans-serif" font-size="20" font-weight="700" text-anchor="middle" dominant-baseline="middle" paint-order="stroke fill" stroke="#FFFFFF" stroke-width="5" fill="#1A73E8">2</text><path d="M 152.05 53.79 L 168.42 53.79" fill="none" stroke="#1A73E8" stroke-width="3.2" stroke-linecap="round" stroke-linejoin="round" opacity="1.0" marker-end="url(#arrow-med)"/><text x="145.88" y="36.88" font-family="Arial, sans-serif" font-size="20" font-weight="700" text-anchor="middle" dominant-baseline="middle" paint-order="stroke fill" stroke="#FFFFFF" stroke-width="5" fill="#1A73E8">3</text><path d="M 152.05 83.21 L 168.42 83.21" fill="none" stroke="#1A73E8" stroke-width="3.2" stroke-linecap="round" stroke-linejoin="round" opacity="1.0" marker-end="url(#arrow-med)"/><text x="152.05" y="65.21" font-family="Arial, sans-serif" font-size="20" font-weight="700" text-anchor="middle" dominant-baseline="middle" paint-order="stroke fill" stroke="#FFFFFF" stroke-width="5" fill="#1A73E8">4</text><path d="M 197.95 17.02 L 197.95 119.98" fill="none" stroke="#1A73E8" stroke-width="3.2" stroke-linecap="round" stroke-linejoin="round" opacity="1.0" marker-end="url(#arrow-med)"/><text x="210.00" y="20.00" font-family="Arial, sans-serif" font-size="20" font-weight="700" text-anchor="middle" dominant-baseline="middle" paint-order="stroke fill" stroke="#FFFFFF" stroke-width="5" fill="#1A73E8">5</text><path d="M 81.66 133.60 C 76.52 151.48 66.23 166.80 50.80 183.40" fill="none" stroke="#1E8E3E" stroke-width="3.2" stroke-linecap="round" stroke-linejoin="round" opacity="1.0" marker-end="url(#arrow-fin)"/><text x="64.36" y="128.62" font-family="Arial, sans-serif" font-size="20" font-weight="700" text-anchor="middle" dominant-baseline="middle" paint-order="stroke fill" stroke="#FFFFFF" stroke-width="5" fill="#1E8E3E">6</text><path d="M 81.66 133.60 C 86.81 151.48 97.09 166.80 112.53 183.40" fill="none" stroke="#1E8E3E" stroke-width="3.2" stroke-linecap="round" stroke-linejoin="round" opacity="1.0" marker-end="url(#arrow-fin)"/><text x="76.52" y="154.58" font-family="Arial, sans-serif" font-size="20" font-weight="700" text-anchor="middle" dominant-baseline="middle" paint-order="stroke fill" stroke="#FFFFFF" stroke-width="5" fill="#1E8E3E">7</text><path d="M 178.34 133.60 C 173.19 151.48 162.91 166.80 147.47 183.40" fill="none" stroke="#1E8E3E" stroke-width="3.2" stroke-linecap="round" stroke-linejoin="round" opacity="1.0" marker-end="url(#arrow-fin)"/><text x="195.64" y="138.58" font-family="Arial, sans-serif" font-size="20" font-weight="700" text-anchor="middle" dominant-baseline="middle" paint-order="stroke fill" stroke="#FFFFFF" stroke-width="5" fill="#1E8E3E">8</text><path d="M 178.34 133.60 C 183.48 151.48 193.77 166.80 209.20 183.40" fill="none" stroke="#1E8E3E" stroke-width="3.2" stroke-linecap="round" stroke-linejoin="round" opacity="1.0" marker-end="url(#arrow-fin)"/><text x="183.48" y="112.62" font-family="Arial, sans-serif" font-size="20" font-weight="700" text-anchor="middle" dominant-baseline="middle" paint-order="stroke fill" stroke="#FFFFFF" stroke-width="5" fill="#1E8E3E">9</text><rect x="280" y="10" width="180" height="180" fill="#ffffff" stroke="#d8d8d8" stroke-width="1"/><rect x="280.00" y="10.00" width="90.00" height="117.00" fill="#FADBD8" stroke="#ffffff" stroke-width="1.5"/><text x="325.00" y="68.50" font-family="Arial, sans-serif" font-size="15" text-anchor="middle" dominant-baseline="middle" fill="#5f6368">initial</text><rect x="370.00" y="10.00" width="90.00" height="117.00" fill="#D4EFDF" stroke="#ffffff" stroke-width="1.5"/><text x="415.00" y="68.50" font-family="Arial, sans-serif" font-size="15" text-anchor="middle" dominant-baseline="middle" fill="#5f6368">medial</text><rect x="280.00" y="127.00" width="180.00" height="63.00" fill="#D6EAF8" stroke="#ffffff" stroke-width="1.5"/><text x="370.00" y="158.50" font-family="Arial, sans-serif" font-size="15" text-anchor="middle" dominant-baseline="middle" fill="#5f6368">final</text><rect x="520" y="10" width="180" height="180" fill="#ffffff" stroke="#d8d8d8" stroke-width="1"/><line x1="610.0" y1="10" x2="610.0" y2="190" stroke="#d0d0d0" stroke-width="1" stroke-dasharray="4,4"/><line x1="520" y1="100.0" x2="700" y2="100.0" stroke="#d0d0d0" stroke-width="1" stroke-dasharray="4,4"/><path d="M 529.93 17.02 L 529.93 119.98 L 600.07 119.98" fill="none" stroke="#CCCCCC" stroke-width="3.2" stroke-linecap="round" stroke-linejoin="round" opacity="0.35"/><path d="M 632.05 17.02 L 632.05 119.98" fill="none" stroke="#CCCCCC" stroke-width="3.2" stroke-linecap="round" stroke-linejoin="round" opacity="0.35"/><path d="M 632.05 53.79 L 648.42 53.79" fill="none" stroke="#CCCCCC" stroke-width="3.2" stroke-linecap="round" stroke-linejoin="round" opacity="0.35"/><path d="M 632.05 83.21 L 648.42 83.21" fill="none" stroke="#CCCCCC" stroke-width="3.2" stroke-linecap="round" stroke-linejoin="round" opacity="0.35"/><path d="M 677.95 17.02 L 677.95 119.98" fill="none" stroke="#CCCCCC" stroke-width="3.2" stroke-linecap="round" stroke-linejoin="round" opacity="0.35"/><path d="M 561.66 133.60 C 556.52 151.48 546.23 166.80 530.80 183.40" fill="none" stroke="#CCCCCC" stroke-width="3.2" stroke-linecap="round" stroke-linejoin="round" opacity="0.35"/><path d="M 561.66 133.60 C 566.81 151.48 577.09 166.80 592.53 183.40" fill="none" stroke="#CCCCCC" stroke-width="3.2" stroke-linecap="round" stroke-linejoin="round" opacity="0.35"/><path d="M 658.34 133.60 C 653.19 151.48 642.91 166.80 627.47 183.40" fill="none" stroke="#CCCCCC" stroke-width="3.2" stroke-linecap="round" stroke-linejoin="round" opacity="0.35"/><path d="M 658.34 133.60 C 663.48 151.48 673.77 166.80 689.20 183.40" fill="none" stroke="#CCCCCC" stroke-width="3.2" stroke-linecap="round" stroke-linejoin="round" opacity="0.35"/><rect x="760" y="10" width="180" height="180" fill="#ffffff" stroke="#d8d8d8" stroke-width="1"/><line x1="850.0" y1="10" x2="850.0" y2="190" stroke="#d0d0d0" stroke-width="1" stroke-dasharray="4,4"/><line x1="760" y1="100.0" x2="940" y2="100.0" stroke="#d0d0d0" stroke-width="1" stroke-dasharray="4,4"/></svg>