<svg xmlns="http://www.w3.org/2000/svg" width="1000" height="200" viewBox="0 0 1000 200"><rect x="0" y="0" width="1000" height="200" fill="#ffffff"/><defs><marker id="arrow-init" viewBox="0 0 7 7" refX="6" refY="3.5" markerWidth="7" markerHeight="7" markerUnits="userSpaceOnUse" orient="auto"><path d="M0,0.7 L6.3,3.5 L0,6.3 L1.5,3.5 z" fill="#D93025"/></marker><marker id="arrow-med" viewBox="0 0 7 7" refX="6" refY="3.5" markerWidth="7" markerHeight="7" markerUnits="userSpaceOnUse" orient="auto"><path d="M0,0.7 L6.3,3.5 L0,6.3 L1.5,3.5 z" fill="#1A73E8"/></marker><marker id="arrow-fin" viewBox="0 0 7 7" refX="6" refY="3.5" markerWidth="7" markerHeight="7" markerUnits="userSpaceOnUse" orient="auto"><path d="M0,0.7 L6.3,3.5 L0,6.3 L1.5,3.5 z" fill="#1E8E3E"/></marker></defs><rect x="40" y="10" width="180" height="180" fill="#ffffff" stroke="#d8d8d8" stroke-width="1"/><line x1="130.0" y1="10" x2="130.0" y2="190" stroke="#d0d0d0" stroke-width="1" stroke-dasharray="4,4"/><line x1="40" y1="100.0" x2="220" y2="100.0" stroke="#d0d0d0" stroke-width="1" stroke-dasharray="4,4"/><path d="M 61.45 17.02 L 61.45 119.98" fill="none" stroke="#D93025" stroke-width="3.2" stroke-linecap="round" stroke-linejoin="round" opacity="1.0" marker-end="url(#arrow-init)"/><text x="50.00" y="20.00" font-family="Arial, sans-serif" font-size="20" font-weight="700" text-anchor="middle" dominant-baseline="middle" paint-order="stroke fill" stroke="#FFFFFF" stroke-width="5" fill="#D93025">1</text><path d="M 108.55 17.02 L 108.55 119.98" fill="none" stroke="#D93025" stroke-width="3.2" stroke-linecap="round" stroke-linejoin="round" opacity="1.0" marker-end="url(#arrow-init)"/><text x="90.55" y="20.00" font-family="Arial, sans-serif" font-size="20" font-weight="700" text-anchor="middle" dominant-baseline="middle" paint-order="stroke fill" stroke="#FFFFFF" stroke-width="5" fill="#D93025">2</text><path d="M 61.45 50.41 L 108.55 50.41" fill="none" stroke="#D93025" stroke-width="3.2" stroke-linecap="round" stroke-linejoin="round" opacity="1.0" marker-end="url(#arrow-init)"/><text x="69.45" y="42.41" font-family="Arial, sans-serif" font-size="20" font-weight="700" text-anchor="middle" dominant-baseline="middle" paint-order="stroke fill" stroke="#FFFFFF" stroke-width="5" fill="#D93025">3</text><path d="M 61.45 117.20 L 108.55 117.20" fill="none" stroke="#D93025" stroke-width="3.2" stroke-linecap="round" stroke-linejoin="round" opacity="1.0" marker-end="url(#arrow-init)"/><text x="61.45" y="135.20" font-family="Arial, sans-serif" font-size="20" font-weight="700" text-anchor="middle" dominant-baseline="middle" paint-order="stroke fill" stroke="#FFFFFF" stroke-width="5" fill="#D93025">4</text><path d="M 161.80 17.02 L 161.80 119.98" fill="none" stroke="#1A73E8" stroke-width="3.2" stroke-linecap="round" stroke-linejoin="round" opacity="1.0" marker-end="url(#arrow-med)"/><text x="179.80" y="20.00" font-family="Arial, sans-serif" font-size="20" font-weight="700" text-anchor="middle" dominant-baseline="middle" paint-order="stroke fill" stroke="#FFFFFF" stroke-width="5" fill="#1A73E8">5</text><path d="M 161.80 68.50 L 188.20 68.50" fill="none" stroke="#1A73E8" stroke-width="3.2" stroke-linecap="round" stroke-linejoin="round" opacity="1.0" marker-end="url(#arrow-med)"/><text x="161.80" y="50.50" font-family="Arial, sans-serif" font-size="20" font-weight="700" text-anchor="middle" dominant-baseline="middle" paint-order="stroke fill" stroke="#FFFFFF" stroke-width="5" fill="#1A73E8">6</text><path d="M 68.40 130.78 L 191.60 130.78" fill="none" stroke="#1E8E3E" stroke-width="3.2" stroke-linecap="round" stroke-linejoin="round" opacity="1.0" marker-end="url(#arrow-fin)"/><text x="84.63" y="150.05" font-family="Arial, sans-serif" font-size="20" font-weight="700" text-anchor="middle" dominant-baseline="middle" paint-order="stroke fill" stroke="#FFFFFF" stroke-width="5" fill="#1E8E3E">7</text><path d="M 130.00 130.78 C 119.00 149.26 90.40 166.20 50.80 186.22" fill="none" stroke="#1E8E3E" stroke-width="3.2" stroke-linecap="round" stroke-linejoin="round" opacity="1.0" marker-end="url(#arrow-fin)"/><text x="145.47" y="139.99" font-family="Arial, sans-serif" font-size="20" font-weight="700" text-anchor="middle" dominant-baseline="middle" paint-order="stroke fill" stroke="#FFFFFF" stroke-width="5" fill="#1E8E3E">8</text><path d="M 130.00 130.78 C 141.00 149.26 169.60 166.20 209.20 186.22" fill="none" stroke="#1E8E3E" stroke-width="3.2" stroke-linecap="round" stroke-linejoin="round" opacity="1.0" marker-end="url(#arrow-fin)"/><text x="114.53" y="139.99" font-family="Arial, sans-serif" font-size="20" font-weight="700" text-anchor="middle" dominant-baseline="middle" paint-order="stroke fill" stroke="#FFFFFF" stroke-width="5" fill="#1E8E3E">9</text><rect x="280" y="10" width="180" height="180" fill="#ffffff" stroke="#d8d8d8" stroke-width="1"/><rect x="280.00" y="10.00" width="90.00" height="117.00" fill="#FADBD8" stroke="#ffffff" stroke-width="1.5"/><text x="325.00" y="68.50" font-family="Arial, sans-serif" font-size="15" text-anchor="middle" dominant-baseline="middle" fill="#5f6368">initial</text><rect x="370.00" y="10.00" width="90.00" height="117.00" fill="#D4EFDF" stroke="#ffffff" stroke-width="1.5"/><text x="415.00" y="68.50" font-family="Arial, sans-serif" font-size="15" text-anchor="middle" dominant-baseline="middle" fill="#5f6368">medial</text><rect x="280.00" y="127.00" width="180.00" height="63.00" fill="#D6EAF8" stroke="#ffffff" stroke-width="1.5"/><text x="370.00" y="158.50" font-family="Arial, sans-serif" font-size="15" text-anchor="middle" dominant-baseline="middle" fill="#5f6368">final</text><rect x="520" y="10" width="180" height="180" fill="#ffffff" stroke="#d8d8d8" stroke-width="1"/><line x1="610.0" y1="10" x2="610.0" y2="190" stroke="#d0d0d0" stroke-width="1" stroke-dasharray="4,4"/><line x1="520" y1="100.0" x2="700" y2="100.0" stroke="#d0d0d0" stroke-width="1" stroke-dasharray="4,4"/><path d="M 541.45 17.02 L 541.45 119.98" fill="none" stroke="#CCCCCC" stroke-width="3.2" stroke-linecap="round" stroke-linejoin="round" opacity="0.35"/><path d="M 588.55 17.02 L 588.55 119.98" fill="none" stroke="#CCCCCC" stroke-width="3.2" stroke-linecap="round" stroke-linejoin="round" opacity="0.35"/><path d="M 541.45 50.41 L 588.55 50.41" fill="none" stroke="#CCCCCC" stroke-width="3.2" stroke-linecap="round" stroke-linejoin="round" opacity="0.35"/><path d="M 541.45 117.20 L 588.55 117.20" fill="none" stroke="#CCCCCC" stroke-width="3.2" stroke-linecap="round" stroke-linejoin="round" opacity="0.35"/><path d="M 641.80 17.02 L 641.80 119.98" fill="none" stroke="#CCCCCC" stroke-width="3.2" stroke-linecap="round" stroke-linejoin="round" opacity="0.35"/><path d="M 641.80 68.50 L 668.20 68.50" fill="none" stroke="#CCCCCC" stroke-width="3.2" stroke-linecap="round" stroke-linejoin="round" opacity="0.35"/><path d="M 548.40 130.78 L 671.60 130.78" fill="none" stroke="#CCCCCC" stroke-width="3.2" stroke-linecap="round" stroke-linejoin="round" opacity="0.35"/><path d="M 610.00 130.78 C 599.00 149.26 570.40 166.20 530.80 186.22" fill="none" stroke="#CCCCCC" stroke-width="3.2" stroke-linecap="round" stroke-linejoin="round" opacity="0.35"/><path d="M 610.00 130.78 C 621.00 149.26 649.60 166.20 689.20 186.22" fill="none" stroke="#CCCCCC" stroke-width="3.2" stroke-linecap="round" stroke-linejoin="round" opacity="0.35"/><rect x="760" y="10" width="180" height="180" fill="#ffffff" stroke="#d8d8d8" stroke-width="1"/><line x1="850.0" y1="10" x2="850.0" y2="190" stroke="#d0d0d0" stroke-width="1" stroke-dasharray="4,4"/><line x1="760" y1="100.0" x2="940" y2="100.0" stroke="#d0d0d0" stroke-width="1" stroke-dasharray="4,4"/></svg>