<svg width="1040" height="140" viewBox="0 0 1040 140" xmlns="http://www.w3.org/2000/svg">
<rect x="0" y="0" width="1040" height="140" fill="#ffffff"/>
<defs>
<marker id="arrow-I" viewBox="0 0 10 10" refX="8" refY="5" markerWidth="2.5" markerHeight="2.5" orient="auto-start-reverse"><path d="M0,0 L10,5 L0,10 z" fill="#c0392b"/></marker>
<marker id="arrow-M" viewBox="0 0 10 10" refX="8" refY="5" markerWidth="2.5" markerHeight="2.5" orient="auto-start-reverse"><path d="M0,0 L10,5 L0,10 z" fill="#2456c9"/></marker>
<marker id="arrow-F" viewBox="0 0 10 10" refX="8" refY="5" markerWidth="2.5" markerHeight="2.5" orient="auto-start-reverse"><path d="M0,0 L10,5 L0,10 z" fill="#1a8f5e"/></marker>
</defs>
<g transform="translate(0,0) scale(1.4)">
<g>
<rect x="0" y="0" width="100" height="100" fill="#ffffff" stroke="#d8d8d8" stroke-width="1"/>
<line x1="50.0" y1="0" x2="50.0" y2="100" stroke="#bdbdbd" stroke-width="0.8" stroke-dasharray="3,3"/>
<line x1="0" y1="50.0" x2="100" y2="50.0" stroke="#bdbdbd" stroke-width="0.8" stroke-dasharray="3,3"/>
<path d="M 27.00 11.00 Q 17.88 36.08 8.00 49.00" fill="none" stroke="#c0392b" stroke-width="3" stroke-linecap="round" marker-end="url(#arrow-I)"/>
<text x="23.00" y="9.00" font-size="7" font-weight="700" text-anchor="middle" fill="#c0392b">1</text>
<path d="M 27.00 11.00 Q 36.12 36.08 46.00 49.00" fill="none" stroke="#c0392b" stroke-width="3" stroke-linecap="round" marker-end="url(#arrow-I)"/>
<text x="23.00" y="9.00" font-size="7" font-weight="700" text-anchor="middle" fill="#c0392b">2</text>
<path d="M 55.94 8.00 L 55.94 52.00" fill="none" stroke="#2456c9" stroke-width="3" stroke-linecap="round" marker-end="url(#arrow-M)"/>
<text x="51.94" y="6.00" font-size="7" font-weight="700" text-anchor="middle" fill="#2456c9">3</text>
<path d="M 55.94 22.67 L 74.27 22.67" fill="none" stroke="#2456c9" stroke-width="3" stroke-linecap="round" marker-end="url(#arrow-M)"/>
<text x="51.94" y="20.67" font-size="7" font-weight="700" text-anchor="middle" fill="#2456c9">4</text>
<path d="M 55.94 37.33 L 74.27 37.33" fill="none" stroke="#2456c9" stroke-width="3" stroke-linecap="round" marker-end="url(#arrow-M)"/>
<text x="51.94" y="35.33" font-size="7" font-weight="700" text-anchor="middle" fill="#2456c9">5</text>
<path d="M 88.06 8.00 L 88.06 52.00" fill="none" stroke="#2456c9" stroke-width="3" stroke-linecap="round" marker-end="url(#arrow-M)"/>
<text x="84.06" y="6.00" font-size="7" font-weight="700" text-anchor="middle" fill="#2456c9">6</text>
<path d="M 10.54 59.83 L 47.63 59.83" fill="none" stroke="#1a8f5e" stroke-width="3" stroke-linecap="round" marker-end="url(#arrow-F)"/>
<text x="6.54" y="57.83" font-size="7" font-weight="700" text-anchor="middle" fill="#1a8f5e">7</text>
<path d="M 47.63 59.83 L 47.63 73.31" fill="none" stroke="#1a8f5e" stroke-width="3" stroke-linecap="round" marker-end="url(#arrow-F)"/>
<text x="43.63" y="57.83" font-size="7" font-weight="700" text-anchor="middle" fill="#1a8f5e">8</text>
<path d="M 47.63 73.31 L 17.29 73.31" fill="none" stroke="#1a8f5e" stroke-width="3" stroke-linecap="round" marker-end="url(#arrow-F)"/>
<text x="43.63" y="71.31" font-size="7" font-weight="700" text-anchor="middle" fill="#1a8f5e">9</text>
<path d="M 17.29 73.31 L 17.29 90.17" fill="none" stroke="#1a8f5e" stroke-width="3" stroke-linecap="round" marker-end="url(#arrow-F)"/>
<text x="13.29" y="71.31" font-size="7" font-weight="700" text-anchor="middle" fill="#1a8f5e">10</text>
<path d="M 17.29 90.17 L 47.63 90.17" fill="none" stroke="#1a8f5e" stroke-width="3" stroke-linecap="round" marker-end="url(#arrow-F)"/>
<text x="13.29" y="88.17" font-size="7" font-weight="700" text-anchor="middle" fill="#1a8f5e">11</text>
<path d="M 52.37 58.00 L 89.46 58.00" fill="none" stroke="#1a8f5e" stroke-width="3" stroke-linecap="round" marker-end="url(#arrow-F)"/>
<text x="48.37" y="56.00" font-size="7" font-weight="700" text-anchor="middle" fill="#1a8f5e">12</text>
<path d="M 58.55 58.00 L 58.55 92.00" fill="none" stroke="#1a8f5e" stroke-width="3" stroke-linecap="round" marker-end="url(#arrow-F)"/>
<text x="54.55" y="56.00" font-size="7" font-weight="700" text-anchor="middle" fill="#1a8f5e">13</text>
<path d="M 58.55 73.45 L 83.28 73.45" fill="none" stroke="#1a8f5e" stroke-width="3" stroke-linecap="round" marker-end="url(#arrow-F)"/>
<text x="54.55" y="71.45" font-size="7" font-weight="700" text-anchor="middle" fill="#1a8f5e">14</text>
<path d="M 52.37 92.00 L 89.46 92.00" fill="none" stroke="#1a8f5e" stroke-width="3" stroke-linecap="round" marker-end="url(#arrow-F)"/>
<text x="48.37" y="90.00" font-size="7" font-weight="700" text-anchor="middle" fill="#1a8f5e">15</text>
</g>
</g>
<g transform="translate(150,0) scale(1.4)">
<g>
<rect x="0" y="0" width="100" height="100" fill="#ffffff" stroke="#d8d8d8" stroke-width="1"/>
<rect x="8.0" y="8.0" width="38.0" height="44.0" fill="#f6c8c2" stroke="#ffffff" stroke-width="1.5"/>
<text x="27.0" y="30.0" font-size="6.5" text-anchor="middle" fill="#444444">initial</text>
<rect x="52.0" y="8.0" width="40.0" height="44.0" fill="#c9e6c4" stroke="#ffffff" stroke-width="1.5"/>
<text x="72.0" y="30.0" font-size="6.5" text-anchor="middle" fill="#444444">medial</text>
<rect x="8.0" y="58.0" width="84.0" height="34.0" fill="#c7d4f5" stroke="#ffffff" stroke-width="1.5"/>
<text x="50.0" y="75.0" font-size="6.5" text-anchor="middle" fill="#444444">final</text>
</g>
</g>
<g transform="translate(300,0) scale(1.4)">
<rect x="0" y="0" width="100" height="100" fill="#ffffff" stroke="#d8d8d8" stroke-width="1"/><line x1="50" y1="0" x2="50" y2="100" stroke="#bdbdbd" stroke-width="0.8" stroke-dasharray="3,3"/><line x1="0" y1="50" x2="100" y2="50" stroke="#bdbdbd" stroke-width="0.8" stroke-dasharray="3,3"/><path d="M 27.00 11.00 Q 17.88 36.08 8.00 49.00" fill="none" stroke="#cfcfcf" stroke-width="3" stroke-linecap="round"/><path d="M 27.00 11.00 Q 36.12 36.08 46.00 49.00" fill="none" stroke="#cfcfcf" stroke-width="3" stroke-linecap="round"/><path d="M 55.94 8.00 L 55.94 52.00" fill="none" stroke="#cfcfcf" stroke-width="3" stroke-linecap="round"/><path d="M 55.94 22.67 L 74.27 22.67" fill="none" stroke="#cfcfcf" stroke-width="3" stroke-linecap="round"/><path d="M 55.94 37.33 L 74.27 37.33" fill="none" stroke="#cfcfcf" stroke-width="3" stroke-linecap="round"/><path d="M 88.06 8.00 L 88.06 52.00" fill="none" stroke="#cfcfcf" stroke-width="3" stroke-linecap="round"/><path d="M 10.54 59.83 L 47.63 59.83" fill="none" stroke="#cfcfcf" stroke-width="3" stroke-linecap="round"/><path d="M 47.63 59.83 L 47.63 73.31" fill="none" stroke="#cfcfcf" stroke-width="3" stroke-linecap="round"/><path d="M 47.63 73.31 L 17.29 73.31" fill="none" stroke="#cfcfcf" stroke-width="3" stroke-linecap="round"/><path d="M 17.29 73.31 L 17.29 90.17" fill="none" stroke="#cfcfcf" stroke-width="3" stroke-linecap="round"/><path d="M 17.29 90.17 L 47.63 90.17" fill="none" stroke="#cfcfcf" stroke-width="3" stroke-linecap="round"/><path d="M 52.37 58.00 L 89.46 58.00" fill="none" stroke="#cfcfcf" stroke-width="3" stroke-linecap="round"/><path d="M 58.55 58.00 L 58.55 92.00" fill="none" stroke="#cfcfcf" stroke-width="3" stroke-linecap="round"/><path d="M 58.55 73.45 L 83.28 73.45" fill="none" stroke="#cfcfcf" stroke-width="3" stroke-linecap="round"/><path d="M 52.37 92.00 L 89.46 92.00" fill="none" stroke="#cfcfcf" stroke-width="3" stroke-linecap="round"/>
</g>
<g transform="translate(450,0) scale(1.4)">
<rect x="0" y="0" width="100" height="100" fill="#ffffff" stroke="#d8d8d8" stroke-width="1"/><line x1="50" y1="0" x2="50" y2="100" stroke="#bdbdbd" stroke-width="0.8" stroke-dasharray="3,3"/><line x1="0" y1="50" x2="100" y2="50" stroke="#bdbdbd" stroke-width="0.8" stroke-dasharray="3,3"/>
</g>
<g transform="translate(600,0) scale(1.4)">
<rect x="0" y="0" width="100" height="100" fill="#ffffff" stroke="#d8d8d8" stroke-width="1"/><line x1="50" y1="0" x2="50" y2="100" stroke="#bdbdbd" stroke-width="0.8" stroke-dasharray="3,3"/><line x1="0" y1="50" x2="100" y2="50" stroke="#bdbdbd" stroke-width="0.8" stroke-dasharray="3,3"/>
</g>
<g transform="translate(750,0) scale(1.4)">
<rect x="0" y="0" width="100" height="100" fill="#ffffff" stroke="#d8d8d8" stroke-width="1"/><line x1="50" y1="0" x2="50" y2="100" stroke="#bdbdbd" stroke-width="0.8" stroke-dasharray="3,3"/><line x1="0" y1="50" x2="100" y2="50" stroke="#bdbdbd" stroke-width="0.8" stroke-dasharray="3,3"/>
</g>
<g transform="translate(900,0) scale(1.4)">
<rect x="0" y="0" width="100" height="100" fill="#ffffff" stroke="#d8d8d8" stroke-width="1"/><line x1="50" y1="0" x2="50" y2="100" stroke="#bdbdbd" stroke-width="0.8" stroke-dasharray="3,3"/><line x1="0" y1="50" x2="100" y2="50" stroke="#bdbdbd" stroke-width="0.8" stroke-dasharray="3,3"/>
</g>
</svg>