<svg width="1040" height="140" viewBox="0 0 1040 140" xmlns="http://www.w3.org/2000/svg">
<rect x="0" y="0" width="1040" height="140" fill="#ffffff"/>
<defs>
<marker id="arrow-I" viewBox="0 0 10 10" refX="8" refY="5" markerWidth="2.5" markerHeight="2.5" orient="auto-start-reverse"><path d="M0,0 L10,5 L0,10 z" fill="#c0392b"/></marker>
<marker id="arrow-M" viewBox="0 0 10 10" refX="8" refY="5" markerWidth="2.5" markerHeight="2.5" orient="auto-start-reverse"><path d="M0,0 L10,5 L0,10 z" fill="#2456c9"/></marker>
<marker id="arrow-F" viewBox="0 0 10 10" refX="8" refY="5" markerWidth="2.5" markerHeight="2.5" orient="auto-start-reverse"><path d="M0,0 L10,5 L0,10 z" fill="#1a8f5e"/></marker>
</defs>
<g transform="translate(0,0) scale(1.4)">
<g>
<rect x="0" y="0" width="100" height="100" fill="#ffffff" stroke="#d8d8d8" stroke-width="1"/>
<line x1="50.0" y1="0" x2="50.0" y2="100" stroke="#bdbdbd" stroke-width="0.8" stroke-dasharray="3,3"/>
<line x1="0" y1="50.0" x2="100" y2="50.0" stroke="#bdbdbd" stroke-width="0.8" stroke-dasharray="3,3"/>
<circle cx="50.00" cy="20.00" r="15.00" fill="none" stroke="#c0392b" stroke-width="3"/>
<text x="46.00" y="0.00" font-size="7" font-weight="700" text-anchor="middle" fill="#c0392b">1</text>
<path d="M 42.95 51.29 L 42.95 44.71" fill="none" stroke="#2456c9" stroke-width="3" stroke-linecap="round" marker-end="url(#arrow-M)"/>
<text x="38.95" y="49.29" font-size="7" font-weight="700" text-anchor="middle" fill="#2456c9">2</text>
<path d="M 36.37 44.71 L 49.53 44.71" fill="none" stroke="#2456c9" stroke-width="3" stroke-linecap="round" marker-end="url(#arrow-M)"/>
<text x="32.37" y="42.71" font-size="7" font-weight="700" text-anchor="middle" fill="#2456c9">3</text>
<path d="M 51.96 34.00 L 51.96 62.00" fill="none" stroke="#2456c9" stroke-width="3" stroke-linecap="round" marker-end="url(#arrow-M)"/>
<text x="47.96" y="32.00" font-size="7" font-weight="700" text-anchor="middle" fill="#2456c9">4</text>
<path d="M 51.96 48.00 L 63.63 48.00" fill="none" stroke="#2456c9" stroke-width="3" stroke-linecap="round" marker-end="url(#arrow-M)"/>
<text x="47.96" y="46.00" font-size="7" font-weight="700" text-anchor="middle" fill="#2456c9">5</text>
<path d="M 26.18 69.82 L 26.18 90.18" fill="none" stroke="#1a8f5e" stroke-width="3" stroke-linecap="round" marker-end="url(#arrow-F)"/>
<text x="22.18" y="67.82" font-size="7" font-weight="700" text-anchor="middle" fill="#1a8f5e">6</text>
<path d="M 26.18 90.18 L 48.57 90.18" fill="none" stroke="#1a8f5e" stroke-width="3" stroke-linecap="round" marker-end="url(#arrow-F)"/>
<text x="22.18" y="88.18" font-size="7" font-weight="700" text-anchor="middle" fill="#1a8f5e">7</text>
<path d="M 58.15 65.00 L 67.10 65.00" fill="none" stroke="#1a8f5e" stroke-width="3" stroke-linecap="round" marker-end="url(#arrow-F)"/>
<text x="54.15" y="63.00" font-size="7" font-weight="700" text-anchor="middle" fill="#1a8f5e">8</text>
<path d="M 51.43 73.96 L 73.82 73.96" fill="none" stroke="#1a8f5e" stroke-width="3" stroke-linecap="round" marker-end="url(#arrow-F)"/>
<text x="47.43" y="71.96" font-size="7" font-weight="700" text-anchor="middle" fill="#1a8f5e">9</text>
<circle cx="62.62" cy="86.04" r="8.96" fill="none" stroke="#1a8f5e" stroke-width="3"/>
<text x="58.62" y="72.09" font-size="7" font-weight="700" text-anchor="middle" fill="#1a8f5e">10</text>
</g>
</g>
<g transform="translate(150,0) scale(1.4)">
<g>
<rect x="0" y="0" width="100" height="100" fill="#ffffff" stroke="#d8d8d8" stroke-width="1"/>
<rect x="15.0" y="5.0" width="70.0" height="30.0" fill="#f6c8c2" stroke="#ffffff" stroke-width="1.5"/>
<text x="50.0" y="20.0" font-size="6.5" text-anchor="middle" fill="#444444">initial</text>
<rect x="15.0" y="34.0" width="70.0" height="28.0" fill="#c9e6c4" stroke="#ffffff" stroke-width="1.5"/>
<text x="50.0" y="48.0" font-size="6.5" text-anchor="middle" fill="#444444">medial</text>
<rect x="8.0" y="65.0" width="84.0" height="30.0" fill="#c7d4f5" stroke="#ffffff" stroke-width="1.5"/>
<text x="50.0" y="80.0" font-size="6.5" text-anchor="middle" fill="#444444">final</text>
</g>
</g>
<g transform="translate(300,0) scale(1.4)">
<rect x="0" y="0" width="100" height="100" fill="#ffffff" stroke="#d8d8d8" stroke-width="1"/><line x1="50" y1="0" x2="50" y2="100" stroke="#bdbdbd" stroke-width="0.8" stroke-dasharray="3,3"/><line x1="0" y1="50" x2="100" y2="50" stroke="#bdbdbd" stroke-width="0.8" stroke-dasharray="3,3"/><circle cx="50.00" cy="20.00" r="15.00" fill="none" stroke="#cfcfcf" stroke-width="3"/><path d="M 42.95 51.29 L 42.95 44.71" fill="none" stroke="#cfcfcf" stroke-width="3" stroke-linecap="round"/><path d="M 36.37 44.71 L 49.53 44.71" fill="none" stroke="#cfcfcf" stroke-width="3" stroke-linecap="round"/><path d="M 51.96 34.00 L 51.96 62.00" fill="none" stroke="#cfcfcf" stroke-width="3" stroke-linecap="round"/><path d="M 51.96 48.00 L 63.63 48.00" fill="none" stroke="#cfcfcf" stroke-width="3" stroke-linecap="round"/><path d="M 26.18 69.82 L 26.18 90.18" fill="none" stroke="#cfcfcf" stroke-width="3" stroke-linecap="round"/><path d="M 26.18 90.18 L 48.57 90.18" fill="none" stroke="#cfcfcf" stroke-width="3" stroke-linecap="round"/><path d="M 58.15 65.00 L 67.10 65.00" fill="none" stroke="#cfcfcf" stroke-width="3" stroke-linecap="round"/><path d="M 51.43 73.96 L 73.82 73.96" fill="none" stroke="#cfcfcf" stroke-width="3" stroke-linecap="round"/><circle cx="62.62" cy="86.04" r="8.96" fill="none" stroke="#cfcfcf" stroke-width="3"/>
</g>
<g transform="translate(450,0) scale(1.4)">
<rect x="0" y="0" width="100" height="100" fill="#ffffff" stroke="#d8d8d8" stroke-width="1"/><line x1="50" y1="0" x2="50" y2="100" stroke="#bdbdbd" stroke-width="0.8" stroke-dasharray="3,3"/><line x1="0" y1="50" x2="100" y2="50" stroke="#bdbdbd" stroke-width="0.8" stroke-dasharray="3,3"/>
</g>
<g transform="translate(600,0) scale(1.4)">
<rect x="0" y="0" width="100" height="100" fill="#ffffff" stroke="#d8d8d8" stroke-width="1"/><line x1="50" y1="0" x2="50" y2="100" stroke="#bdbdbd" stroke-width="0.8" stroke-dasharray="3,3"/><line x1="0" y1="50" x2="100" y2="50" stroke="#bdbdbd" stroke-width="0.8" stroke-dasharray="3,3"/>
</g>
<g transform="translate(750,0) scale(1.4)">
<rect x="0" y="0" width="100" height="100" fill="#ffffff" stroke="#d8d8d8" stroke-width="1"/><line x1="50" y1="0" x2="50" y2="100" stroke="#bdbdbd" stroke-width="0.8" stroke-dasharray="3,3"/><line x1="0" y1="50" x2="100" y2="50" stroke="#bdbdbd" stroke-width="0.8" stroke-dasharray="3,3"/>
</g>
<g transform="translate(900,0) scale(1.4)">
<rect x="0" y="0" width="100" height="100" fill="#ffffff" stroke="#d8d8d8" stroke-width="1"/><line x1="50" y1="0" x2="50" y2="100" stroke="#bdbdbd" stroke-width="0.8" stroke-dasharray="3,3"/><line x1="0" y1="50" x2="100" y2="50" stroke="#bdbdbd" stroke-width="0.8" stroke-dasharray="3,3"/>
</g>
</svg>