<svg width="1040" height="140" viewBox="0 0 1040 140" xmlns="http://www.w3.org/2000/svg">
<rect x="0" y="0" width="1040" height="140" fill="#ffffff"/>
<defs>
<marker id="arrow-I" viewBox="0 0 10 10" refX="8" refY="5" markerWidth="2.5" markerHeight="2.5" orient="auto-start-reverse"><path d="M0,0 L10,5 L0,10 z" fill="#c0392b"/></marker>
<marker id="arrow-M" viewBox="0 0 10 10" refX="8" refY="5" markerWidth="2.5" markerHeight="2.5" orient="auto-start-reverse"><path d="M0,0 L10,5 L0,10 z" fill="#2456c9"/></marker>
<marker id="arrow-F" viewBox="0 0 10 10" refX="8" refY="5" markerWidth="2.5" markerHeight="2.5" orient="auto-start-reverse"><path d="M0,0 L10,5 L0,10 z" fill="#1a8f5e"/></marker>
</defs>
<g transform="translate(0,0) scale(1.4)">
<g>
<rect x="0" y="0" width="100" height="100" fill="#ffffff" stroke="#d8d8d8" stroke-width="1"/>
<line x1="50.0" y1="0" x2="50.0" y2="100" stroke="#bdbdbd" stroke-width="0.8" stroke-dasharray="3,3"/>
<line x1="0" y1="50.0" x2="100" y2="50.0" stroke="#bdbdbd" stroke-width="0.8" stroke-dasharray="3,3"/>
<path d="M 33.64 5.00 L 66.36 5.00" fill="none" stroke="#c0392b" stroke-width="3" stroke-linecap="round" marker-end="url(#arrow-I)"/>
<text x="29.64" y="3.00" font-size="7" font-weight="700" text-anchor="middle" fill="#c0392b">1</text>
<path d="M 39.09 5.00 L 39.09 35.00" fill="none" stroke="#c0392b" stroke-width="3" stroke-linecap="round" marker-end="url(#arrow-I)"/>
<text x="35.09" y="3.00" font-size="7" font-weight="700" text-anchor="middle" fill="#c0392b">2</text>
<path d="M 39.09 18.64 L 60.91 18.64" fill="none" stroke="#c0392b" stroke-width="3" stroke-linecap="round" marker-end="url(#arrow-I)"/>
<text x="35.09" y="16.64" font-size="7" font-weight="700" text-anchor="middle" fill="#c0392b">3</text>
<path d="M 33.64 35.00 L 66.36 35.00" fill="none" stroke="#c0392b" stroke-width="3" stroke-linecap="round" marker-end="url(#arrow-I)"/>
<text x="29.64" y="33.00" font-size="7" font-weight="700" text-anchor="middle" fill="#c0392b">4</text>
<path d="M 15.00 47.42 L 85.00 47.42" fill="none" stroke="#2456c9" stroke-width="3" stroke-linecap="round" marker-end="url(#arrow-M)"/>
<text x="11.00" y="45.42" font-size="7" font-weight="700" text-anchor="middle" fill="#2456c9">5</text>
<path d="M 20.99 68.84 L 48.26 68.84" fill="none" stroke="#1a8f5e" stroke-width="3" stroke-linecap="round" marker-end="url(#arrow-F)"/>
<text x="16.99" y="66.84" font-size="7" font-weight="700" text-anchor="middle" fill="#1a8f5e">6</text>
<path d="M 48.26 68.84 L 48.26 78.76" fill="none" stroke="#1a8f5e" stroke-width="3" stroke-linecap="round" marker-end="url(#arrow-F)"/>
<text x="44.26" y="66.84" font-size="7" font-weight="700" text-anchor="middle" fill="#1a8f5e">7</text>
<path d="M 48.26 78.76 L 25.95 78.76" fill="none" stroke="#1a8f5e" stroke-width="3" stroke-linecap="round" marker-end="url(#arrow-F)"/>
<text x="44.26" y="76.76" font-size="7" font-weight="700" text-anchor="middle" fill="#1a8f5e">8</text>
<path d="M 25.95 78.76 L 25.95 91.16" fill="none" stroke="#1a8f5e" stroke-width="3" stroke-linecap="round" marker-end="url(#arrow-F)"/>
<text x="21.95" y="76.76" font-size="7" font-weight="700" text-anchor="middle" fill="#1a8f5e">9</text>
<path d="M 25.95 91.16 L 48.26 91.16" fill="none" stroke="#1a8f5e" stroke-width="3" stroke-linecap="round" marker-end="url(#arrow-F)"/>
<text x="21.95" y="89.16" font-size="7" font-weight="700" text-anchor="middle" fill="#1a8f5e">10</text>
<path d="M 51.74 65.00 L 51.74 95.00" fill="none" stroke="#1a8f5e" stroke-width="3" stroke-linecap="round" marker-end="url(#arrow-F)"/>
<text x="47.74" y="63.00" font-size="7" font-weight="700" text-anchor="middle" fill="#1a8f5e">11</text>
<path d="M 79.01 65.00 L 79.01 95.00" fill="none" stroke="#1a8f5e" stroke-width="3" stroke-linecap="round" marker-end="url(#arrow-F)"/>
<text x="75.01" y="63.00" font-size="7" font-weight="700" text-anchor="middle" fill="#1a8f5e">12</text>
<path d="M 51.74 78.64 L 79.01 78.64" fill="none" stroke="#1a8f5e" stroke-width="3" stroke-linecap="round" marker-end="url(#arrow-F)"/>
<text x="47.74" y="76.64" font-size="7" font-weight="700" text-anchor="middle" fill="#1a8f5e">13</text>
<path d="M 51.74 95.00 L 79.01 95.00" fill="none" stroke="#1a8f5e" stroke-width="3" stroke-linecap="round" marker-end="url(#arrow-F)"/>
<text x="47.74" y="93.00" font-size="7" font-weight="700" text-anchor="middle" fill="#1a8f5e">14</text>
</g>
</g>
<g transform="translate(150,0) scale(1.4)">
<g>
<rect x="0" y="0" width="100" height="100" fill="#ffffff" stroke="#d8d8d8" stroke-width="1"/>
<rect x="15.0" y="5.0" width="70.0" height="30.0" fill="#f6c8c2" stroke="#ffffff" stroke-width="1.5"/>
<text x="50.0" y="20.0" font-size="6.5" text-anchor="middle" fill="#444444">initial</text>
<rect x="15.0" y="34.0" width="70.0" height="28.0" fill="#c9e6c4" stroke="#ffffff" stroke-width="1.5"/>
<text x="50.0" y="48.0" font-size="6.5" text-anchor="middle" fill="#444444">medial</text>
<rect x="8.0" y="65.0" width="84.0" height="30.0" fill="#c7d4f5" stroke="#ffffff" stroke-width="1.5"/>
<text x="50.0" y="80.0" font-size="6.5" text-anchor="middle" fill="#444444">final</text>
</g>
</g>
<g transform="translate(300,0) scale(1.4)">
<rect x="0" y="0" width="100" height="100" fill="#ffffff" stroke="#d8d8d8" stroke-width="1"/><line x1="50" y1="0" x2="50" y2="100" stroke="#bdbdbd" stroke-width="0.8" stroke-dasharray="3,3"/><line x1="0" y1="50" x2="100" y2="50" stroke="#bdbdbd" stroke-width="0.8" stroke-dasharray="3,3"/><path d="M 33.64 5.00 L 66.36 5.00" fill="none" stroke="#cfcfcf" stroke-width="3" stroke-linecap="round"/><path d="M 39.09 5.00 L 39.09 35.00" fill="none" stroke="#cfcfcf" stroke-width="3" stroke-linecap="round"/><path d="M 39.09 18.64 L 60.91 18.64" fill="none" stroke="#cfcfcf" stroke-width="3" stroke-linecap="round"/><path d="M 33.64 35.00 L 66.36 35.00" fill="none" stroke="#cfcfcf" stroke-width="3" stroke-linecap="round"/><path d="M 15.00 47.42 L 85.00 47.42" fill="none" stroke="#cfcfcf" stroke-width="3" stroke-linecap="round"/><path d="M 20.99 68.84 L 48.26 68.84" fill="none" stroke="#cfcfcf" stroke-width="3" stroke-linecap="round"/><path d="M 48.26 68.84 L 48.26 78.76" fill="none" stroke="#cfcfcf" stroke-width="3" stroke-linecap="round"/><path d="M 48.26 78.76 L 25.95 78.76" fill="none" stroke="#cfcfcf" stroke-width="3" stroke-linecap="round"/><path d="M 25.95 78.76 L 25.95 91.16" fill="none" stroke="#cfcfcf" stroke-width="3" stroke-linecap="round"/><path d="M 25.95 91.16 L 48.26 91.16" fill="none" stroke="#cfcfcf" stroke-width="3" stroke-linecap="round"/><path d="M 51.74 65.00 L 51.74 95.00" fill="none" stroke="#cfcfcf" stroke-width="3" stroke-linecap="round"/><path d="M 79.01 65.00 L 79.01 95.00" fill="none" stroke="#cfcfcf" stroke-width="3" stroke-linecap="round"/><path d="M 51.74 78.64 L 79.01 78.64" fill="none" stroke="#cfcfcf" stroke-width="3" stroke-linecap="round"/><path d="M 51.74 95.00 L 79.01 95.00" fill="none" stroke="#cfcfcf" stroke-width="3" stroke-linecap="round"/>
</g>
<g transform="translate(450,0) scale(1.4)">
<rect x="0" y="0" width="100" height="100" fill="#ffffff" stroke="#d8d8d8" stroke-width="1"/><line x1="50" y1="0" x2="50" y2="100" stroke="#bdbdbd" stroke-width="0.8" stroke-dasharray="3,3"/><line x1="0" y1="50" x2="100" y2="50" stroke="#bdbdbd" stroke-width="0.8" stroke-dasharray="3,3"/>
</g>
<g transform="translate(600,0) scale(1.4)">
<rect x="0" y="0" width="100" height="100" fill="#ffffff" stroke="#d8d8d8" stroke-width="1"/><line x1="50" y1="0" x2="50" y2="100" stroke="#bdbdbd" stroke-width="0.8" stroke-dasharray="3,3"/><line x1="0" y1="50" x2="100" y2="50" stroke="#bdbdbd" stroke-width="0.8" stroke-dasharray="3,3"/>
</g>
<g transform="translate(750,0) scale(1.4)">
<rect x="0" y="0" width="100" height="100" fill="#ffffff" stroke="#d8d8d8" stroke-width="1"/><line x1="50" y1="0" x2="50" y2="100" stroke="#bdbdbd" stroke-width="0.8" stroke-dasharray="3,3"/><line x1="0" y1="50" x2="100" y2="50" stroke="#bdbdbd" stroke-width="0.8" stroke-dasharray="3,3"/>
</g>
<g transform="translate(900,0) scale(1.4)">
<rect x="0" y="0" width="100" height="100" fill="#ffffff" stroke="#d8d8d8" stroke-width="1"/><line x1="50" y1="0" x2="50" y2="100" stroke="#bdbdbd" stroke-width="0.8" stroke-dasharray="3,3"/><line x1="0" y1="50" x2="100" y2="50" stroke="#bdbdbd" stroke-width="0.8" stroke-dasharray="3,3"/>
</g>
</svg>